<svg width="30" height="28" viewBox="0 0 30 28" fill="none" xmlns="http://www.w3.org/2000/svg">
<path d="M2.1416 7.76798V24.1073C2.1416 25.1018 2.53669 26.0557 3.23994 26.7589C3.9432 27.4622 4.89702 27.8573 5.89154 27.8573H24.1059C25.1004 27.8573 26.0542 27.4622 26.7575 26.7589C27.4607 26.0557 27.8558 25.1018 27.8558 24.1073V7.76798C27.8558 7.69693 27.8277 7.62882 27.7773 7.57863C27.7271 7.52831 27.6591 7.50012 27.588 7.50012H2.40946C2.33841 7.50012 2.27024 7.52831 2.22005 7.57863C2.16979 7.62882 2.1416 7.69693 2.1416 7.76798ZM20.021 17.9217L15.7561 22.186C15.5552 22.3868 15.2827 22.4997 14.9987 22.4997C14.7147 22.4997 14.4422 22.3868 14.2414 22.186L9.97642 17.9217C9.56858 17.514 9.53108 16.8503 9.91947 16.4231C10.017 16.3157 10.1352 16.2292 10.2672 16.1689C10.3991 16.1086 10.5419 16.0756 10.6869 16.0722C10.8319 16.0687 10.9761 16.0946 11.1107 16.1485C11.2454 16.2024 11.3678 16.283 11.4704 16.3856L13.9273 18.8418V11.8159C13.9273 11.2393 14.3706 10.7445 14.9471 10.7157C15.092 10.7088 15.2368 10.7313 15.3727 10.7819C15.5087 10.8325 15.6329 10.9102 15.7379 11.0102C15.8429 11.1103 15.9265 11.2306 15.9836 11.364C16.0407 11.4973 16.0701 11.6408 16.0701 11.7858V18.8418L18.5271 16.3856C18.6296 16.283 18.752 16.2024 18.8866 16.1485C19.0213 16.0946 19.1655 16.0687 19.3105 16.0721C19.4555 16.0756 19.5984 16.1086 19.7303 16.1689C19.8621 16.2292 19.9804 16.3157 20.078 16.4231C20.4663 16.8497 20.4288 17.514 20.021 17.9217Z" fill="#FAF9F5"/>
<path d="M27.8571 0H2.14286C0.959375 0 0 0.959439 0 2.14286V3.21429C0 4.39783 0.959375 5.35714 2.14286 5.35714H27.8571C29.0406 5.35714 30 4.39783 30 3.21429V2.14286C30 0.959439 29.0406 0 27.8571 0Z" fill="#FAF9F5"/>
</svg>
