<svg width="36" height="35" viewBox="0 0 36 35" fill="none" xmlns="http://www.w3.org/2000/svg">
<path d="M24.4612 1.06179C26.41 -0.546245 29.3126 -0.328206 30.7898 1.71863C31.2722 2.38365 31.7901 3.14406 32.8176 4.43049C34.2781 6.27278 35.0715 8.55542 35.0685 10.9064C35.0655 13.2573 34.2664 15.538 32.8012 17.3766C30.5718 20.1429 28.2333 22.9311 25.6169 25.5476C23.0031 28.1613 20.2122 30.4998 17.4486 32.732C15.6102 34.1975 13.3295 34.997 10.9784 35C8.62731 35.003 6.34458 34.2093 4.50251 32.7483C3.14521 31.6636 2.38208 31.1539 1.69525 30.6551C-0.277998 29.2215 -0.547821 26.4306 0.986628 24.531C2.42569 22.7458 4.0637 21.0532 5.62813 19.4016C6.139 18.8726 6.8327 18.5587 7.56731 18.5243C8.30193 18.4898 9.02195 18.7374 9.58009 19.2163C10.3023 19.8322 10.872 20.2956 12.1693 21.5138C16.4701 18.9601 19.0757 16.3218 21.5859 12.1C20.3594 10.7945 19.8961 10.2249 19.2746 9.49445C18.7963 8.93887 18.5494 8.22088 18.5849 7.48859C18.6204 6.75629 18.9356 6.06555 19.4654 5.55885C21.0871 4.04348 22.7387 2.48177 24.4612 1.06179Z" fill="#535353"/>
</svg>
