<svg width="35" height="35" viewBox="0 0 35 35" fill="none" xmlns="http://www.w3.org/2000/svg">
<path fill-rule="evenodd" clip-rule="evenodd" d="M5.07345 0.356074C7.56679 0.182245 11.5291 0 17.1828 0C22.8366 0 26.7989 0.182245 29.2922 0.356074C31.7862 0.529942 33.7689 2.41221 33.9904 4.93255C34.1807 7.09789 34.3657 10.3663 34.3657 14.8918C34.3657 19.4173 34.1807 22.6857 33.9904 24.8511C33.7689 27.3714 31.7862 29.2537 29.2922 29.4275C26.8999 29.5943 23.1555 29.7689 17.8622 29.7827L12.3159 34.5367C11.0774 35.5982 9.16418 34.7183 9.16418 33.0871V29.6429C7.51226 29.5798 6.15476 29.5029 5.07345 29.4275C2.57945 29.2537 0.596802 27.3714 0.375273 24.8511C0.184949 22.6857 0 19.4173 0 14.8918C0 10.3663 0.184949 7.09789 0.375273 4.93255C0.596802 2.41221 2.57945 0.529942 5.07345 0.356074ZM25.9412 9.86089C25.9557 10.0924 25.9652 10.3676 25.9652 10.6915C25.9652 11.0179 25.9556 11.2945 25.9409 11.5265C25.8907 12.3209 25.2605 12.8462 24.5123 12.88C23.4689 12.9271 21.3552 12.9826 17.1828 12.9826C13.0246 12.9826 10.9114 12.9296 9.86463 12.8844C9.11088 12.8519 8.4745 12.3226 8.42448 11.5222C8.40997 11.2907 8.4005 11.0155 8.4005 10.6915C8.4005 10.3676 8.40997 10.0924 8.42448 9.86089C8.4745 9.06048 9.11088 8.53117 9.86463 8.49871C10.9114 8.4535 13.0247 8.4005 17.1828 8.4005C21.3411 8.4005 23.4543 8.4535 24.5011 8.49871C25.2548 8.53117 25.8912 9.06048 25.9412 9.86089ZM19.8419 18.3016C19.8503 18.5234 19.8557 18.7854 19.8557 19.0921C19.8557 19.402 19.8502 19.666 19.8416 19.8888C19.8112 20.6805 19.2199 21.2607 18.4387 21.3028C17.6804 21.3436 16.3688 21.3831 14.1281 21.3831C11.9002 21.3831 10.591 21.3455 9.83111 21.3065C9.04352 21.266 8.44457 20.6817 8.41432 19.8825C8.40592 19.6607 8.4005 19.3987 8.4005 19.0921C8.4005 18.7854 8.40592 18.5234 8.41432 18.3016C8.44457 17.5024 9.04352 16.9181 9.83111 16.8776C10.591 16.8386 11.9002 16.801 14.1281 16.801C16.3561 16.801 17.6652 16.8386 18.4251 16.8776C19.2127 16.9181 19.8117 17.5024 19.8419 18.3016Z" fill="#FAF9F5"/>
</svg>
