<svg width="33" height="40" viewBox="0 0 33 40" fill="none" xmlns="http://www.w3.org/2000/svg">
<path d="M6.14055 15.1425C6.14055 16.7711 6.7875 18.3329 7.93907 19.4845C9.09065 20.6361 10.6525 21.283 12.2811 21.283C13.9097 21.283 15.4715 20.6361 16.6231 19.4845C17.7747 18.3329 18.4216 16.7711 18.4216 15.1425C18.4216 13.5139 17.7747 11.9521 16.6231 10.8005C15.4715 9.6489 13.9097 9.00195 12.2811 9.00195C10.6525 9.00195 9.09065 9.6489 7.93907 10.8005C6.7875 11.9521 6.14055 13.5139 6.14055 15.1425Z" fill="#FAF9F5"/>
<path d="M24.5622 32.7965C24.5622 36.6118 24.5622 39.7047 12.2811 39.7047C0 39.7047 0 36.6118 0 32.7965C0 28.9813 5.49843 25.8884 12.2811 25.8884C19.0638 25.8884 24.5622 28.9813 24.5622 32.7965Z" fill="#FAF9F5"/>
<path fill-rule="evenodd" clip-rule="evenodd" d="M33 7.94985C33 7.19285 32.3864 6.57919 31.6293 6.57919C30.8723 6.57919 30.2587 7.19285 30.2587 7.94985V10.1429H24.7761V8.77224C24.7761 8.32874 24.5089 7.9289 24.0991 7.75918C23.6894 7.58946 23.2178 7.68327 22.9042 7.99688L20.1628 10.7382C19.7346 11.1664 19.7346 11.8607 20.1628 12.2889L22.9042 15.0302C23.2178 15.3438 23.6894 15.4377 24.0991 15.2679C24.5089 15.0982 24.7761 14.6984 24.7761 14.2548V12.8842H30.5328C31.8954 12.8842 33 11.7796 33 10.417V7.94985ZM25.8726 1.09656V2.46722H20.1158C18.7532 2.46722 17.6486 3.57181 17.6486 4.9344L17.6486 7.40158C17.6486 8.15857 18.2623 8.77224 19.0193 8.77224C19.7763 8.77224 20.39 8.15857 20.39 7.40158V5.20853H25.8726V6.57919C25.8726 7.02269 26.1397 7.42253 26.5495 7.59225C26.9592 7.76197 27.4309 7.66815 27.7445 7.35455L30.4858 4.61324C30.914 4.18501 30.914 3.49074 30.4858 3.06251L27.7445 0.321197C27.4309 0.00759284 26.9592 -0.0862212 26.5495 0.0835001C26.1397 0.253221 25.8726 0.653055 25.8726 1.09656Z" fill="#FAF9F5"/>
</svg>
