<svg width="38" height="30" viewBox="0 0 38 30" fill="none" xmlns="http://www.w3.org/2000/svg">
<path d="M37.4998 6.62817V24.375C37.4999 25.8098 36.9517 27.1903 35.9674 28.2342C34.9831 29.2781 33.6372 29.9065 32.2049 29.9906L31.8749 30H5.62498C4.19021 30.0001 2.80965 29.4519 1.76575 28.4676C0.721859 27.4833 0.093548 26.1373 0.00937517 24.705L0 24.375V6.62817L17.7093 18.435L17.9268 18.5588C18.1831 18.684 18.4646 18.7491 18.7499 18.7491C19.0352 18.7491 19.3167 18.684 19.573 18.5588L19.7905 18.435L37.4998 6.62817Z" fill="#535353"/>
<path d="M31.8747 0C33.8997 0 35.6753 1.06875 36.6653 2.67562L18.7498 14.6193L0.834229 2.67562C1.30435 1.91206 1.95025 1.272 2.71805 0.808841C3.48585 0.345682 4.35327 0.0728553 5.24796 0.0131249L5.62483 0H31.8747Z" fill="#535353"/>
</svg>
