<svg width="57" height="50" viewBox="0 0 57 50" fill="none" xmlns="http://www.w3.org/2000/svg">
<path d="M54.7001 21.5195L54.6811 21.5111L3.96068 0.219578C3.53407 0.0388646 3.06984 -0.0320098 2.60955 0.0132999C2.14924 0.0586095 1.70722 0.21868 1.323 0.479205C0.917064 0.748408 0.583629 1.11553 0.352691 1.54752C0.121753 1.97954 0.000558047 2.46287 6.5379e-07 2.95403V16.5711C0.000228678 17.2424 0.231889 17.8929 0.655077 18.4099C1.07824 18.9271 1.66641 19.2787 2.31822 19.4041L29.9813 24.581C30.09 24.6017 30.188 24.6603 30.2587 24.7466C30.3293 24.8329 30.3678 24.9412 30.3678 25.0533C30.3678 25.1652 30.3293 25.2737 30.2587 25.36C30.188 25.4461 30.09 25.5047 29.9813 25.5256L2.3194 30.7025C1.66778 30.8275 1.07965 31.1786 0.656293 31.6952C0.232915 32.2119 0.000836743 32.8618 6.5379e-07 33.5331V47.1526C-0.000316047 47.6216 0.114431 48.0831 0.333942 48.4963C0.553454 48.9094 0.870863 49.2609 1.25768 49.5192C1.72299 49.832 2.26906 49.9992 2.8277 50C3.21608 49.9996 3.60047 49.9208 3.95831 49.7679L54.6776 28.5979L54.7001 28.587C55.3829 28.2901 55.9646 27.797 56.3734 27.169C56.7821 26.5408 57 25.8054 57 25.0533C57 24.3011 56.7821 23.5657 56.3734 22.9376C55.9646 22.3095 55.3829 21.8165 54.7001 21.5195Z" fill="#272727"/>
</svg>
