<svg width="35" height="35" viewBox="0 0 35 35" fill="none" xmlns="http://www.w3.org/2000/svg">
<path fill-rule="evenodd" clip-rule="evenodd" d="M0 8.75C0 3.9175 3.9175 0 8.75 0C13.5825 0 17.5 3.9175 17.5 8.75C17.5 13.5825 13.5825 17.5 8.75 17.5C3.9175 17.5 0 13.5825 0 8.75ZM26.25 5C22.7982 5 20 7.79822 20 11.25C20 14.7018 22.7982 17.5 26.25 17.5C29.7017 17.5 32.5 14.7018 32.5 11.25C32.5 7.79822 29.7017 5 26.25 5ZM4.77968 24.0222C4.77968 21.7969 6.58368 19.9928 8.80902 19.9928H24.0956C26.321 19.9928 28.125 21.7969 28.125 24.0222V30.9707C28.125 33.196 26.321 35 24.0956 35H8.80902C6.58368 35 4.77968 33.196 4.77968 30.9707V24.0222ZM34.6953 24.3713C34.6953 23.3358 33.856 22.4963 32.8203 22.4963C31.7848 22.4963 30.9453 23.3358 30.9453 24.3713V30.6213C30.9453 31.6567 31.7848 32.4963 32.8203 32.4963C33.856 32.4963 34.6953 31.6567 34.6953 30.6213V24.3713Z" fill="#FAF9F5"/>
</svg>
