<svg width="41" height="35" viewBox="0 0 41 35" fill="none" xmlns="http://www.w3.org/2000/svg">
<path d="M20.1924 0C9.87362 0 4.78856 0.436379 2.55772 0.722994C1.01198 0.921579 0 2.24147 0 3.68535L8.98657e-06 6.55686C1.21877e-08 7.73646 0.421204 8.90842 1.27654 9.80137C3.02363 11.6251 7.1391 15.6254 13.0579 19.5286C13.1856 19.6129 13.2633 19.7471 13.2761 19.8846C13.8482 26.0498 14.3728 30.2668 14.6525 32.3508C14.8585 33.886 16.17 35 17.6939 35C18.2725 35 18.8394 34.8377 19.3302 34.5314L23.8411 31.7174C24.7922 31.1241 25.5552 30.182 25.8102 28.9815C26.1117 27.5623 26.5813 24.8279 27.087 19.8976C27.1013 19.7585 27.18 19.6254 27.3062 19.5423C33.2361 15.6347 37.3591 11.6272 39.1082 9.80128C39.9635 8.90842 40.3847 7.73646 40.3847 6.55686V3.68534C40.3847 2.24146 39.3728 0.921579 37.827 0.722994C35.5962 0.436379 30.5111 0 20.1924 0Z" fill="#535353"/>
</svg>
