<svg width="60" height="60" viewBox="0 0 60 60" fill="none" xmlns="http://www.w3.org/2000/svg">
<path d="M30 29.1428C37.9179 29.1428 42.8667 20.5713 38.9077 13.7142C37.0703 10.5318 33.6747 8.57135 30 8.57135C22.0821 8.57135 17.1333 17.1428 21.0923 23.9999C22.9297 27.1823 26.3253 29.1428 30 29.1428ZM26.3277 32.9999C18.4125 32.9999 12 39.4124 12 47.3276C12 48.6455 12.1821 52.8749 13.5 52.8749L20.25 56.9999L30 59.6249L38.625 57.3749L46.125 53.6249C47.4429 53.6249 48 48.6455 48 47.3276C48 39.4124 41.5875 32.9999 33.6723 32.9999H26.3277Z" fill="#272727"/>
<circle cx="30" cy="30" r="28.5" stroke="#272727" stroke-width="3"/>
</svg>
