<svg width="35" height="36" viewBox="0 0 35 36" fill="none" xmlns="http://www.w3.org/2000/svg">
<path d="M35 18.2539C35 16.7857 34.8809 15.7142 34.623 14.6031H17.8572V21.2301H27.6984C27.5 22.8769 26.4286 25.3571 24.0476 27.0237L24.0142 27.2456L29.3153 31.3522L29.6825 31.3889C33.0555 28.2738 35 23.6904 35 18.2539Z" fill="#4285F4"/>
<path d="M17.8569 35.7142C22.6783 35.7142 26.7259 34.1268 29.6823 31.3888L24.0474 27.0236C22.5395 28.0752 20.5156 28.8094 17.8569 28.8094C13.1348 28.8094 9.12687 25.6943 7.69814 21.3888L7.48876 21.4066L1.97663 25.6725L1.90454 25.8728C4.841 31.7062 10.8728 35.7142 17.8569 35.7142Z" fill="#34A853"/>
<path d="M7.69835 21.389C7.32133 20.2779 7.10317 19.0873 7.10317 17.8572C7.10317 16.627 7.32137 15.4365 7.67851 14.3254L7.66852 14.0888L2.08732 9.75439L1.90471 9.84125C0.694452 12.2619 0 14.9802 0 17.8572C0 20.7342 0.694452 23.4524 1.90471 25.873L7.69835 21.389Z" fill="#FBBC05"/>
<path d="M17.8569 6.90472C21.2101 6.90472 23.4719 8.35312 24.7617 9.56354L29.8013 4.64286C26.7062 1.76588 22.6783 0 17.8569 0C10.8728 0 4.841 4.00791 1.90454 9.8412L7.67831 14.3254C9.12687 10.0198 13.1348 6.90472 17.8569 6.90472Z" fill="#EB4335"/>
</svg>
