<svg width="60" height="60" viewBox="0 0 60 60" fill="none" xmlns="http://www.w3.org/2000/svg">
<path d="M30.01 14.6151C21.496 14.6151 14.6285 21.4826 14.6285 29.9967C14.6285 38.5107 21.496 45.3782 30.01 45.3782C38.5241 45.3782 45.3916 38.5107 45.3916 29.9967C45.3916 21.4826 38.5241 14.6151 30.01 14.6151ZM30.01 39.9967C24.508 39.9967 20.01 35.5121 20.01 29.9967C20.01 24.4813 24.4946 19.9966 30.01 19.9966C35.5254 19.9966 40.01 24.4813 40.01 29.9967C40.01 35.5121 35.5121 39.9967 30.01 39.9967ZM49.6084 13.9859C49.6084 15.9806 48.002 17.5736 46.0208 17.5736C44.0261 17.5736 42.4331 15.9672 42.4331 13.9859C42.4331 12.0047 44.0395 10.3983 46.0208 10.3983C48.002 10.3983 49.6084 12.0047 49.6084 13.9859ZM59.7959 17.6272C59.5683 12.8213 58.4706 8.56425 54.9498 5.05689C51.4424 1.54952 47.1854 0.4518 42.3795 0.210838C37.4264 -0.0702794 22.5803 -0.0702794 17.6272 0.210838C12.8347 0.438419 8.57765 1.53614 5.05689 5.04351C1.53613 8.55087 0.4518 12.8079 0.210838 17.6138C-0.0702794 22.5669 -0.0702794 37.413 0.210838 42.3661C0.438419 47.172 1.53614 51.4291 5.05689 54.9364C8.57763 58.4438 12.8213 59.5415 17.6272 59.7825C22.5803 60.0636 37.4264 60.0636 42.3795 59.7825C47.1854 59.5549 51.4424 58.4572 54.9498 54.9364C58.4572 51.4291 59.5549 47.172 59.7959 42.3661C60.077 37.413 60.077 22.5803 59.7959 17.6272ZM53.3969 47.6807C52.3527 50.3046 50.3313 52.326 47.6941 53.3835C43.745 54.9498 34.3742 54.5884 30.01 54.5884C25.6459 54.5884 16.2617 54.9364 12.326 53.3835C9.70214 52.3394 7.68072 50.3179 6.62315 47.6807C5.05689 43.7316 5.41834 34.3608 5.41834 29.9967C5.41834 25.6325 5.07028 16.2483 6.62315 12.3126C7.66734 9.68875 9.68875 7.66734 12.326 6.60977C16.2751 5.04351 25.6459 5.40495 30.01 5.40495C34.3742 5.40495 43.7584 5.05689 47.6941 6.60977C50.3179 7.65394 52.3394 9.67537 53.3969 12.3126C54.9632 16.2617 54.6017 25.6325 54.6017 29.9967C54.6017 34.3608 54.9632 43.745 53.3969 47.6807Z" fill="#272727"/>
</svg>
