<svg width="49" height="50" viewBox="0 0 49 50" fill="none" xmlns="http://www.w3.org/2000/svg">
<path fill-rule="evenodd" clip-rule="evenodd" d="M21.4364 3.78183C26.4788 -1.26061 34.6543 -1.26061 39.6966 3.78183C44.7393 8.82431 44.7393 16.9998 39.6966 22.0422L24.6972 37.0417C21.4556 40.2833 16.1999 40.2833 12.9584 37.0417C9.71678 33.8002 9.71678 28.5446 12.9584 25.303L22.0886 16.1728C23.1691 15.0923 24.9209 15.0923 26.0015 16.1728C27.082 17.2533 27.082 19.0052 26.0015 20.0857L16.8713 29.2159C15.7908 30.2964 15.7908 32.0483 16.8713 33.1289C17.9518 34.2094 19.7037 34.2094 20.7842 33.1289L35.7839 18.1293C38.6651 15.2478 38.6651 10.5762 35.7839 7.6948C32.9024 4.81339 28.2307 4.81339 25.3493 7.6948L9.04543 23.9987C4.36316 28.681 4.36316 36.2725 9.04543 40.9548C13.7277 45.637 21.3192 45.637 26.0015 40.9548L44.2619 22.6944C45.3424 21.6138 47.0944 21.6138 48.1746 22.6944C49.2552 23.7749 49.2552 25.5268 48.1746 26.6073L29.9144 44.8675C23.0711 51.7108 11.9758 51.7108 5.13249 44.8675C-1.71083 38.0245 -1.71083 26.9291 5.13249 20.0857L21.4364 3.78183Z" fill="#E0C271"/>
</svg>
