<svg width="50" height="50" viewBox="0 0 50 50" fill="none" xmlns="http://www.w3.org/2000/svg">
<path d="M49.2337 44.9811L37.8989 33.6464C40.6277 30.0134 42.101 25.5916 42.0959 21.048C42.0959 9.44218 32.6538 0 21.048 0C9.44219 0 0 9.44218 0 21.048C0 32.6537 9.44219 42.096 21.048 42.096C25.5917 42.1009 30.0135 40.6278 33.6464 37.8988L44.9811 49.2336C45.5548 49.7465 46.3032 50.0202 47.0726 49.9988C47.8419 49.9773 48.5738 49.6619 49.1179 49.1179C49.662 48.5737 49.9774 47.8418 49.9988 47.0725C50.0203 46.3032 49.7466 45.555 49.2337 44.9811ZM6.01362 21.048C6.01362 18.0745 6.89532 15.1677 8.54742 12.6954C10.1994 10.2231 12.5474 8.29613 15.2946 7.15806C18.0417 6.0202 21.0646 5.72247 23.981 6.30262C26.8973 6.88265 29.5762 8.31441 31.6788 10.4171C33.7814 12.5198 35.2133 15.1986 35.7933 18.115C36.3734 21.0313 36.0756 24.0542 34.9378 26.8013C33.7998 29.5485 31.8728 31.8965 29.4005 33.5485C26.9282 35.2006 24.0215 36.0822 21.048 36.0822C17.0621 36.0775 13.2409 34.4919 10.4223 31.6735C7.60397 28.855 6.0184 25.0338 6.01362 21.048Z" fill="#535353"/>
</svg>
