<svg width="30" height="30" viewBox="0 0 30 30" fill="none" xmlns="http://www.w3.org/2000/svg">
<path d="M29.5402 26.9886L22.7393 20.1878C24.3766 18.008 25.2606 15.355 25.2575 12.6288C25.2575 5.66531 19.5923 0 12.6288 0C5.66532 0 0 5.66531 0 12.6288C0 19.5922 5.66532 25.2576 12.6288 25.2576C15.355 25.2605 18.0081 24.3767 20.1879 22.7393L26.9886 29.5402C27.3329 29.8479 27.7819 30.0121 28.2436 29.9993C28.7052 29.9864 29.1443 29.7971 29.4707 29.4707C29.7972 29.1442 29.9864 28.7051 29.9993 28.2435C30.0122 27.7819 29.848 27.333 29.5402 26.9886ZM3.60817 12.6288C3.60817 10.8447 4.13719 9.10064 5.12845 7.61722C6.11966 6.13387 7.52846 4.97768 9.17674 4.29483C10.825 3.61212 12.6387 3.43348 14.3886 3.78157C16.1384 4.12959 17.7457 4.98865 19.0073 6.25026C20.2689 7.51186 21.128 9.11913 21.476 10.869C21.824 12.6188 21.6454 14.4325 20.9627 16.0808C20.2799 17.7291 19.1237 19.1379 17.6403 20.1291C16.1569 21.1203 14.4129 21.6493 12.6288 21.6493C10.2373 21.6465 7.94453 20.6952 6.25339 19.0041C4.56238 17.313 3.61104 15.0203 3.60817 12.6288Z" fill="#FAF9F5"/>
</svg>
