<svg width="42" height="30" viewBox="0 0 42 30" fill="none" xmlns="http://www.w3.org/2000/svg">
<path fill-rule="evenodd" clip-rule="evenodd" d="M0 3C0 1.34316 1.34314 0 3 0H39C40.6569 0 42 1.34316 42 3V27C42 28.6569 40.6569 30 39 30H3C1.34315 30 0 28.6569 0 27V3ZM18 10.5C18 12.9853 15.9853 15 13.5 15C11.0147 15 9 12.9853 9 10.5C9 8.01471 11.0147 6 13.5 6C15.9853 6 18 8.01471 18 10.5ZM4.63995 21.9066C6.83418 19.5059 9.99117 18 13.4999 18C17.0086 18 20.1656 19.5059 22.3599 21.9066C23.1392 22.7594 22.4492 24 21.2939 24H5.70588C4.55061 24 3.86055 22.7594 4.63995 21.9066ZM26.6249 10.5001C26.6249 9.46455 27.4644 8.62509 28.4999 8.62509H34.5C35.5353 8.62509 36.375 9.46455 36.375 10.5001C36.375 11.5356 35.5353 12.3751 34.5 12.3751H28.4999C27.4644 12.3751 26.6249 11.5356 26.6249 10.5001ZM28.4999 17.6251C27.4644 17.6251 26.6249 18.4645 26.6249 19.5001C26.6249 20.5356 27.4644 21.3751 28.4999 21.3751H34.5C35.5353 21.3751 36.375 20.5356 36.375 19.5001C36.375 18.4645 35.5353 17.6251 34.5 17.6251H28.4999Z" fill="#535353"/>
</svg>
