<svg width="30" height="36" viewBox="0 0 30 36" fill="none" xmlns="http://www.w3.org/2000/svg">
<path d="M15 0C17.4864 0 19.871 0.948211 21.6291 2.63604C23.3873 4.32387 24.375 6.61305 24.375 9V14.4C25.8668 14.4 27.2976 14.9689 28.3525 15.9816C29.4074 16.9943 30 18.3678 30 19.8V30.6C30 32.0322 29.4074 33.4057 28.3525 34.4184C27.2976 35.4311 25.8668 36 24.375 36H5.625C4.13316 36 2.70242 35.4311 1.64752 34.4184C0.592632 33.4057 0 32.0322 0 30.6V19.8C0 18.3678 0.592632 16.9943 1.64752 15.9816C2.70242 14.9689 4.13316 14.4 5.625 14.4V9C5.625 6.61305 6.61272 4.32387 8.37087 2.63604C10.129 0.948211 12.5136 0 15 0ZM15 21.6C14.0539 21.5997 13.1427 21.9427 12.449 22.5603C11.7553 23.1779 11.3303 24.0243 11.2594 24.93L11.25 25.2C11.25 25.912 11.4699 26.608 11.882 27.2001C12.294 27.7921 12.8797 28.2535 13.5649 28.526C14.2502 28.7984 15.0042 28.8697 15.7316 28.7308C16.459 28.5919 17.1272 28.2491 17.6516 27.7456C18.1761 27.2421 18.5333 26.6007 18.6779 25.9023C18.8226 25.204 18.7484 24.4802 18.4645 23.8223C18.1807 23.1645 17.7001 22.6023 17.0834 22.2067C16.4667 21.8111 15.7417 21.6 15 21.6ZM15 3.6C13.5082 3.6 12.0774 4.16893 11.0225 5.18162C9.96763 6.19432 9.375 7.56783 9.375 9V14.4H20.625V9C20.625 7.56783 20.0324 6.19432 18.9775 5.18162C17.9226 4.16893 16.4918 3.6 15 3.6Z" fill="#535353"/>
</svg>
