<svg width="58" height="50" viewBox="0 0 58 50" fill="none" xmlns="http://www.w3.org/2000/svg">
<path d="M49.7142 0H8.28571C6.08889 0.00248016 3.98281 0.881201 2.42949 2.44345C0.876165 4.0057 0.00234269 6.12401 0 8.33333V41.6667C0.00246599 43.876 0.876165 45.9942 2.42949 47.5564C3.98281 49.1188 6.08889 49.9974 8.28571 50H49.7142C51.911 49.9974 54.0172 49.1188 55.5705 47.5564C57.124 45.9942 57.9975 43.876 58 41.6667V8.33333C57.9975 6.12401 57.124 4.0057 55.5705 2.44345C54.0172 0.881201 51.911 0.00248016 49.7142 0ZM39.357 8.33333C40.5862 8.33333 41.7877 8.6999 42.8095 9.38666C43.8316 10.0735 44.6279 11.0495 45.0983 12.1916C45.5686 13.3337 45.6918 14.5902 45.452 15.8026C45.2123 17.015 44.6203 18.1287 43.7513 19.0027C42.8821 19.8767 41.7748 20.4722 40.5694 20.7133C39.3639 20.9545 38.1144 20.8306 36.9791 20.3576C35.8435 19.8845 34.873 19.0835 34.19 18.0557C33.5073 17.0279 33.1429 15.8196 33.1429 14.5835C33.1445 12.9263 33.7999 11.3375 34.9647 10.1658C36.1299 8.99417 37.7095 8.33507 39.357 8.33333ZM8.28571 45.8333C7.18699 45.8333 6.13315 45.3943 5.35625 44.613C4.57934 43.8316 4.14286 42.7718 4.14286 41.6667V32.8607L16.4212 21.8842C17.6058 20.8275 19.1465 20.2648 20.7293 20.3106C22.3121 20.3566 23.818 21.0078 24.94 22.1316L33.3488 30.5703L18.1728 45.8333H8.28571ZM53.8571 41.6667C53.8571 42.7718 53.4207 43.8316 52.6436 44.613C51.8667 45.3943 50.813 45.8333 49.7142 45.8333H24.0324L39.7519 30.0234C40.865 29.0716 42.2772 28.5472 43.7383 28.5433C45.1992 28.5394 46.6143 29.0565 47.7321 30.0026L53.8571 35.1354V41.6667Z" fill="#FAF9F5"/>
</svg>
