<svg width="35" height="35" viewBox="0 0 35 35" fill="none" xmlns="http://www.w3.org/2000/svg">
<path d="M24.464 35H17.5V31.429C17.5011 31.0987 17.4352 30.7716 17.3065 30.4676C17.1777 30.1635 16.9887 29.8885 16.7508 29.6594C16.1515 29.0689 15.2797 28.7368 14.3625 28.7501C13.5466 28.7578 12.7596 29.053 12.1398 29.5837C11.7336 29.943 11.25 30.565 11.25 31.4915V35H4.3453C3.19326 34.9987 2.0887 34.5406 1.2741 33.726C0.459494 32.9113 0.00122502 31.8068 3.45168e-05 30.6548V23.7503H3.5711C4.28674 23.7503 4.98281 23.444 5.53126 22.8908C5.83633 22.5833 6.07763 22.2184 6.24125 21.8173C6.40487 21.4161 6.48753 20.9867 6.48433 20.5534C6.46089 18.8981 5.09844 17.5004 3.5086 17.5004H3.45168e-05V10.5208C-0.00227208 9.95207 0.111049 9.38867 0.333078 8.86494C0.555032 8.3412 0.881081 7.86806 1.29143 7.47401C2.11087 6.68354 3.20673 6.24462 4.3453 6.25065H9.28596V5.1194C9.28596 4.43956 9.42138 3.7665 9.68425 3.13956C9.94728 2.51263 10.3324 1.94432 10.8173 1.46783C11.3022 0.991346 11.8772 0.616197 12.5087 0.364336C13.1401 0.112402 13.8155 -0.0111847 14.4952 0.000794524C17.2679 0.0492321 19.5234 2.37416 19.5234 5.18272V6.25065H24.464C25.0286 6.24455 25.5886 6.35125 26.1113 6.56456C26.634 6.77773 27.109 7.09321 27.5082 7.49239C27.9074 7.89165 28.2228 8.36643 28.4362 8.88919C28.6493 9.41189 28.756 9.97201 28.75 10.5364V15.4769H29.8171C32.6749 15.4769 35 17.7425 35 20.5268C35 23.3869 32.7038 25.7142 29.8812 25.7142H28.75V30.6548C28.75 33.0508 26.8273 35 24.464 35Z" fill="#FAF9F5"/>
</svg>
