<svg width="30" height="35" viewBox="0 0 30 35" fill="none" xmlns="http://www.w3.org/2000/svg">
<path d="M20.7265 16.0061C18.9091 13.8314 18.0002 12.7441 16.9556 12.9116C15.9111 13.0791 15.4224 14.3904 14.445 17.0131L14.1921 17.6916C13.9143 18.4369 13.7754 18.8096 13.5052 19.084C13.2351 19.3587 12.8641 19.5038 12.1221 19.7945L11.4468 20.059C8.83594 21.0816 7.53056 21.5928 7.38168 22.6378C7.23281 23.6828 8.33904 24.5696 10.5515 26.3428L11.1239 26.8017C11.7526 27.3056 12.067 27.5576 12.2488 27.9025C12.4308 28.2473 12.4598 28.6461 12.5178 29.4436L12.5705 30.1697C12.7744 32.9763 12.8764 34.3797 13.829 34.858C14.7817 35.3364 15.954 34.5731 18.2988 33.0464L18.9054 32.6514C19.5717 32.2176 19.905 32.0006 20.2876 31.9392C20.6703 31.8779 21.0592 31.979 21.8368 32.1815L22.5449 32.3657C25.2817 33.0777 26.6501 33.4337 27.3877 32.6844C28.1253 31.935 27.7438 30.5765 26.9804 27.8596L26.783 27.1566C26.566 26.3846 26.4576 25.9985 26.5122 25.6157C26.5667 25.2329 26.778 24.8967 27.2007 24.2242L27.5856 23.6121C29.073 21.2453 29.8169 20.0622 29.3201 19.1207C28.8233 18.1792 27.4152 18.1029 24.5986 17.9506L23.8699 17.911C23.0695 17.8677 22.6694 17.8461 22.3203 17.6708C21.9714 17.4956 21.7131 17.1867 21.1966 16.5686L20.7265 16.0061Z" fill="#FAF9F5"/>
<path d="M20.0381 5.83434L20.3752 6.79558C20.7456 7.85139 20.9308 8.37932 21.2911 8.7682C21.6514 9.15708 22.146 9.3629 23.135 9.77454L24.0356 10.1493C27.5168 11.5979 29.2572 12.3222 29.4558 13.8027C29.5383 14.4189 29.3311 14.9963 28.8481 15.6416C28.6849 15.5974 28.5278 15.5615 28.38 15.5312C27.4107 15.3343 26.178 15.2678 24.9215 15.2002L24.0194 15.1514C23.8459 15.142 23.711 15.1346 23.5955 15.1271C23.5189 15.0376 23.4307 14.932 23.317 14.7961L22.7357 14.1004C21.9244 13.1293 21.1308 12.1792 20.3927 11.5196C19.6056 10.8162 18.2898 9.89871 16.5184 10.1827C14.7285 10.4696 13.7735 11.7721 13.2585 12.7018C12.7812 13.5631 12.352 14.7158 11.9172 15.8829L11.6032 16.7262C11.5499 16.8686 11.5074 16.9828 11.47 17.0808C11.3716 17.1202 11.2574 17.1652 11.1146 17.221L10.2757 17.5496C9.11351 18.0044 7.9669 18.4532 7.11315 18.9445C6.19442 19.473 4.90252 20.4494 4.64636 22.2475C4.39261 24.0284 5.34116 25.3286 6.05917 26.0997C6.5943 26.6744 7.31329 27.2805 8.08096 27.9018C5.19151 28.6856 3.65456 28.9782 2.78104 28.0352C1.79755 26.9736 2.30641 25.0492 3.32415 21.2001L3.58745 20.2044C3.87666 19.1106 4.02127 18.5637 3.94856 18.0214C3.87583 17.4791 3.59403 17.0027 3.03042 16.0502L2.51731 15.1827C0.533927 11.8301 -0.457745 10.1538 0.204579 8.82002C0.866885 7.48621 2.74457 7.37823 6.49995 7.16228L7.47151 7.10641C8.53867 7.04505 9.07225 7.01436 9.53754 6.7661C10.0028 6.51784 10.3471 6.08013 11.0358 5.20469L11.6627 4.40765C14.0859 1.32694 15.2977 -0.21344 16.6905 0.0238215C18.0833 0.261083 18.735 2.11883 20.0381 5.83434Z" fill="#FAF9F5"/>
</svg>
