<svg width="53" height="60" viewBox="0 0 53 60" fill="none" xmlns="http://www.w3.org/2000/svg">
<path d="M52.4732 24.5934C47.3151 24.6057 42.2835 22.9971 38.0893 19.9948V40.934C38.0839 55.5945 22.21 64.7515 9.51627 57.4166C-3.17746 50.0817 -3.17074 31.7559 9.52837 24.4303C13.1965 22.3144 17.4651 21.4813 21.6597 22.0627V32.5944C15.2397 30.575 9.04122 36.2627 10.5024 42.8322C11.9635 49.4018 19.9884 51.926 24.9472 47.3758C26.7518 45.72 27.7791 43.3831 27.779 40.934V0H38.0893C38.0821 0.870669 38.1551 1.74016 38.3072 2.59747C39.0313 6.46536 41.3156 9.8646 44.6234 11.9962C46.9518 13.5358 49.6818 14.3564 52.4732 14.3558V24.5934Z" fill="#272727"/>
</svg>
