<svg width="20" height="20" viewBox="0 0 20 20" fill="none" xmlns="http://www.w3.org/2000/svg">
<path d="M15.2963 2.44003C15.8543 1.88218 15.8543 0.976236 15.2963 0.418387C14.7383 -0.139462 13.8322 -0.139462 13.2742 0.418387L7.14541 6.55027L4.58319 3.98862C4.02522 3.43077 3.11907 3.43077 2.5611 3.98862C2.00313 4.54647 2.00313 5.45242 2.5611 6.01026L6.13213 9.5805C6.6901 10.1383 7.59625 10.1383 8.15423 9.5805L15.2963 2.44003ZM19.5815 8.15241C20.1395 7.59456 20.1395 6.68861 19.5815 6.13076C19.0235 5.57291 18.1174 5.57291 17.5594 6.13076L7.14541 16.5469L2.44057 11.8476C1.8826 11.2897 0.976453 11.2897 0.41848 11.8476C-0.139493 12.4054 -0.139493 13.3114 0.41848 13.8692L6.13213 19.5816C6.6901 20.1395 7.59625 20.1395 8.15423 19.5816L19.5815 8.15687V8.15241Z" fill="#4958DB"/>
</svg>
