<svg width="86" height="60" viewBox="0 0 86 60" fill="none" xmlns="http://www.w3.org/2000/svg">
<path d="M83.485 9.38064C82.5044 5.68821 79.615 2.78017 75.9465 1.79329C69.297 -8.10314e-07 42.6334 0 42.6334 0C42.6334 0 15.9699 -8.10314e-07 9.3202 1.79329C5.65167 2.78034 2.76236 5.68821 1.78174 9.38064C0 16.0734 0 30.0371 0 30.0371C0 30.0371 0 44.0009 1.78174 50.6936C2.76236 54.386 5.65167 57.1729 9.3202 58.1598C15.9699 59.9531 42.6334 59.9531 42.6334 59.9531C42.6334 59.9531 69.2969 59.9531 75.9465 58.1598C79.615 57.1729 82.5044 54.386 83.485 50.6936C85.2667 44.0009 85.2667 30.0371 85.2667 30.0371C85.2667 30.0371 85.2667 16.0734 83.485 9.38064ZM33.9128 42.7152V17.3591L56.1984 30.0374L33.9128 42.7152Z" fill="#272727"/>
</svg>
